<svg xmlns="http://www.w3.org/2000/svg" width="411.47" height="530" viewBox="0 0 411.47 530" fill="none">
<!-- The card from assets/rails/review.svg, with the review copy and the avatar
     photo removed. Geometry, colours and the punched hole are the file's own. -->
<g transform="translate(-161.153 0)">
<mask id="path-2-outside-1_113_80" maskUnits="userSpaceOnUse" x="161.153" y="0" width="412" height="530" fill="black">
<rect fill="white" x="161.153" width="412" height="530"/>
<path d="M549.7 6C559.048 6.00019 566.626 13.5785 566.626 22.9268V507.034C566.626 516.383 559.048 523.961 549.7 523.961H184.08C174.731 523.961 167.153 516.383 167.153 507.034V22.9268C167.153 13.5784 174.731 6.00004 184.08 6H549.7ZM367.313 32.2363C354.459 32.2363 344.039 42.6568 344.039 55.5107C344.039 68.3648 354.459 78.7852 367.313 78.7852C380.167 78.785 390.587 68.3647 390.587 55.5107C390.587 42.6569 380.167 32.2365 367.313 32.2363Z"/>
</mask>
<path d="M549.7 6C559.048 6.00019 566.626 13.5785 566.626 22.9268V507.034C566.626 516.383 559.048 523.961 549.7 523.961H184.08C174.731 523.961 167.153 516.383 167.153 507.034V22.9268C167.153 13.5784 174.731 6.00004 184.08 6H549.7ZM367.313 32.2363C354.459 32.2363 344.039 42.6568 344.039 55.5107C344.039 68.3648 354.459 78.7852 367.313 78.7852C380.167 78.785 390.587 68.3647 390.587 55.5107C390.587 42.6569 380.167 32.2365 367.313 32.2363Z" fill="#D5C0FF"/>
<path d="M549.7 6L549.7 0H549.7V6ZM566.626 22.9268H572.626V22.9267L566.626 22.9268ZM549.7 523.961V529.961H549.7L549.7 523.961ZM184.08 523.961L184.08 529.961H184.08V523.961ZM167.153 22.9268L161.153 22.9267V22.9268H167.153ZM184.08 6V0H184.08L184.08 6ZM367.313 32.2363L367.313 26.2363H367.313V32.2363ZM344.039 55.5107L338.039 55.5107V55.5107H344.039ZM367.313 78.7852V84.7852H367.313L367.313 78.7852ZM390.587 55.5107H396.587V55.5107L390.587 55.5107ZM549.7 6L549.7 12C555.734 12.0001 560.626 16.8923 560.626 22.9268L566.626 22.9268L572.626 22.9267C572.626 10.2647 562.362 0.000259399 549.7 0L549.7 6ZM566.626 22.9268H560.626V507.034H566.626H572.626V22.9268H566.626ZM566.626 507.034H560.626C560.626 513.069 555.734 517.961 549.7 517.961L549.7 523.961L549.7 529.961C562.362 529.961 572.626 519.696 572.626 507.034H566.626ZM549.7 523.961V517.961H184.08V523.961V529.961H549.7V523.961ZM184.08 523.961L184.08 517.961C178.045 517.961 173.153 513.069 173.153 507.034H167.153H161.153C161.153 519.696 171.418 529.961 184.08 529.961L184.08 523.961ZM167.153 507.034H173.153V22.9268H167.153H161.153V507.034H167.153ZM167.153 22.9268L173.153 22.9268C173.153 16.8921 178.045 12 184.08 12L184.08 6L184.08 0C171.418 5.8651e-05 161.153 10.2647 161.153 22.9267L167.153 22.9268ZM184.08 6V12H549.7V6V0H184.08V6ZM367.313 32.2363V26.2363C351.145 26.2363 338.039 39.3432 338.039 55.5107L344.039 55.5107L350.039 55.5108C350.039 45.9704 357.773 38.2363 367.313 38.2363V32.2363ZM344.039 55.5107H338.039C338.039 71.6786 351.145 84.7852 367.313 84.7852V78.7852V72.7852C357.773 72.7852 350.039 65.0511 350.039 55.5107H344.039ZM367.313 78.7852L367.313 84.7852C383.481 84.785 396.587 71.6785 396.587 55.5107H390.587H384.587C384.587 65.051 376.853 72.785 367.313 72.7852L367.313 78.7852ZM390.587 55.5107L396.587 55.5107C396.587 39.3432 383.481 26.2365 367.313 26.2363L367.313 32.2363L367.313 38.2363C376.853 38.2365 384.587 45.9706 384.587 55.5108L390.587 55.5107Z" fill="#E8DDFF" mask="url(#path-2-outside-1_113_80)"/>
<path d="M167.153 406.32H566.626V507.035C566.626 516.383 559.048 523.961 549.699 523.961H184.08C174.731 523.961 167.153 516.383 167.153 507.035V406.32Z" fill="#2F1E51"/>
</g>
</svg>
