<svg xmlns="http://www.w3.org/2000/svg" viewBox="0 0 240 240" width="240" height="240">
  <circle cx="120" cy="120" r="120" fill="#000000"/>
  <g transform="translate(58.00 74.46) scale(1.7893)" fill="#ffffff">
    <path d="M 50.948 3.503 L 66.388 21.059 C 69.334 24.409 69.016 29.52 65.68 32.477 L 62.189 35.57 L 56.747 29.382 L 58.127 28.16 C 59.225 27.188 59.329 25.505 58.36 24.402 L 46.649 11.085 C 45.678 9.982 44.003 9.878 42.904 10.851 L 41.525 12.072 L 36.083 5.883 L 39.574 2.79 C 42.91 -0.166 48.004 0.152 50.949 3.501 Z"/>
    <path d="M 29.404 26.364 L 41.115 39.682 C 42.085 40.784 43.761 40.889 44.859 39.916 L 48.649 36.559 L 54.091 42.747 L 48.19 47.975 C 44.854 50.932 39.76 50.613 36.814 47.265 L 21.374 29.708 C 18.429 26.359 18.746 21.247 22.082 18.291 L 27.983 13.063 L 33.425 19.251 L 29.636 22.608 C 28.537 23.581 28.433 25.264 29.402 26.367 Z"/>
    <path d="M 31.591 2.735 L 45.168 18.172 L 39.002 23.634 L 27.291 10.317 C 26.322 9.215 24.645 9.11 23.547 10.083 L 10.279 21.838 C 9.18 22.812 9.077 24.494 10.046 25.596 L 21.757 38.914 C 22.726 40.016 24.403 40.12 25.501 39.148 L 26.879 37.927 L 32.321 44.115 L 28.831 47.208 C 25.493 50.165 20.401 49.846 17.455 46.496 L 2.017 28.94 C -0.928 25.591 -0.611 20.479 2.725 17.523 L 20.216 2.025 C 23.553 -0.932 28.646 -0.613 31.591 2.735 Z"/>
    <path d="M 53.643 27.81 L 66.536 42.47 C 67.085 43.093 66.892 44.162 66.108 44.857 L 62.784 47.801 C 62 48.496 60.919 48.555 60.371 47.932 L 47.478 33.273 C 46.929 32.65 47.122 31.581 47.906 30.884 L 51.23 27.94 C 52.014 27.245 53.095 27.186 53.643 27.81 Z"/>
  </g>
</svg>
