<svg xmlns="http://www.w3.org/2000/svg" xmlns:xlink="http://www.w3.org/1999/xlink" viewBox="0 0 182.225 182.225" overflow="visible"><g><path d="M 91.112 182.225 C 40.792 182.225 0 141.433 0 91.113 L 0 91.112 C 0 40.792 40.792 0 91.112 0 L 91.113 0 C 141.433 0 182.225 40.792 182.225 91.112 L 182.225 91.113 C 182.225 141.433 141.433 182.225 91.113 182.225 Z" fill="rgb(77,162,255)"></path><g transform="translate(46.467 34.167)"><path d="M 0 113.89 L 0 0 L 89.093 0 L 89.093 113.89 Z" fill="transparent"></path><path d="M 46.21 16.838 C 45.347 15.769 43.685 15.769 42.824 16.838 L 37.835 22.926 C 36.319 24.797 34.538 27.915 33.321 31.657 C 32.132 35.399 31.508 39.765 32.34 44.1 C 33.648 50.812 38.607 56.722 47.248 61.622 C 60.078 68.927 67.858 77.926 70.235 88.409 C 70.354 88.973 70.472 89.538 70.562 90.072 L 70.68 90.726 L 71.096 90.221 C 75.877 84.341 78.728 76.738 78.728 68.72 C 78.728 60.701 75.937 53.307 71.304 47.486 Z M 79.263 41.546 C 85.41 49.179 89.092 58.86 89.092 69.403 C 89.092 93.963 69.135 113.89 44.546 113.89 C 19.957 113.89 0 93.963 0 69.403 C 0 58.86 3.682 49.179 9.8 41.546 L 9.918 41.398 L 43.329 0.593 C 43.953 -0.179 45.17 -0.179 45.794 0.593 L 79.174 41.398 Z M 10.365 68.72 C 10.365 87.548 25.658 102.812 44.517 102.812 C 49.892 102.812 55 101.565 59.514 99.368 L 59.662 99.308 L 59.693 99.16 C 59.989 96.576 59.87 93.606 59.157 90.607 C 57.465 83.39 51.645 76.827 41.605 71.125 C 30.083 64.592 23.164 56.128 21.234 46.001 C 21.115 45.467 21.026 44.932 20.966 44.397 L 20.878 43.714 L 17.908 47.367 C 13.186 53.188 10.365 60.642 10.365 68.72 Z" fill="rgb(255,255,255)"></path></g></g></svg>